<svg width="398" height="220" viewBox="0 0 398 220" fill="none" xmlns="http://www.w3.org/2000/svg">
<g clip-path="url(#clip0_71_124)">
<g filter="url(#filter0_d_71_124)">
<path d="M210.004 198.648C208.552 195.111 215.92 192.859 211.334 189.869C217.385 186.989 226.832 186.165 232.746 180.093C251.169 168.41 271.362 160.162 289.841 148.545C292.408 146.298 306.08 139.825 297.393 146.263C283.365 156.917 267.729 164.805 252.448 173.242C248.227 177.299 262.096 171.434 265.222 171.017C277.88 167.646 290.978 165.04 304.084 165.844C308.6 166.73 309.768 172.826 314.53 167.336C320.998 162.404 326.48 157.926 334.563 160.749C343.371 160.674 352.209 160.928 360.979 161.37C367.981 160.073 377.873 147.851 382.447 158.696C392.307 167.282 375.071 167.18 369.603 165.809C360.859 164.193 353.531 169.922 345.797 173.063C337.783 176.438 330.198 181.66 321.546 182.928C327.151 176.757 336.125 174.137 343.406 170.062C348.039 168.779 355.805 163.132 346.138 164.305C338.519 164.576 330.645 163.416 323.204 165.265C315.023 170.943 307.37 177.944 298.057 181.486C292.674 179.846 305.276 172.955 295.991 175.598C275.233 181.607 253.991 185.788 232.709 189.391C224.432 189.687 218.175 195.929 210.961 199.24L210.004 198.648ZM250.521 181.932C265.602 178.973 280.73 176.079 295.414 171.35C302.237 169.302 287.888 169.911 285.291 170.619C272.084 172.514 259.328 177.359 246.704 181.212C245.749 183.482 249.809 181.987 250.521 181.932ZM378.766 161.76C378.31 153.674 365.767 163.602 376.008 162.194L377.835 162.09L378.766 161.76ZM168.942 187.703C168.9 180.275 181.546 177.958 186.663 173.164C202.731 163.915 219.617 156.122 236.903 149.923C221.576 158.562 205.269 165.516 190.622 175.461C193.898 176.347 205.455 170.788 211.62 169.17C227.283 165.302 243.121 160.517 259.359 160.953C252.747 165.279 244.193 164.749 236.746 166.96C214.349 171.18 193.042 179.578 171.848 187.962L170.353 188.374L168.942 187.703ZM298.376 156.007C298.238 149.115 311.492 153.077 316.67 150.95C324.821 150.475 332.991 147.94 341.134 149.07C335.786 153.88 324.964 153.38 317.372 154.745C311.049 155.005 304.662 156.412 298.376 156.007Z" fill="white"/>
<path d="M300.013 143.237C300.092 143.238 300.18 143.249 300.26 143.284C300.345 143.32 300.431 143.388 300.473 143.498C300.512 143.603 300.498 143.707 300.473 143.788C300.447 143.869 300.402 143.95 300.349 144.03C300.242 144.189 300.072 144.379 299.841 144.601C299.377 145.047 298.63 145.656 297.543 146.461L297.544 146.462C283.507 157.123 267.858 165.019 252.599 173.444C252.353 173.682 252.178 173.878 252.065 174.036C251.943 174.204 251.91 174.304 251.906 174.348C251.906 174.351 251.906 174.354 251.906 174.356C251.908 174.357 251.911 174.359 251.915 174.361C251.957 174.384 252.052 174.411 252.229 174.414C252.573 174.421 253.095 174.339 253.754 174.187C254.407 174.036 255.177 173.82 256.007 173.568C257.669 173.063 259.558 172.42 261.236 171.873C262.891 171.335 264.361 170.883 265.174 170.771C277.439 167.505 290.138 164.952 302.867 165.529L304.1 165.595L304.116 165.596L304.133 165.599C305.314 165.831 306.269 166.402 307.102 167.022C307.517 167.331 307.907 167.658 308.276 167.959C308.649 168.263 309.001 168.542 309.352 168.771C310.05 169.227 310.714 169.465 311.471 169.299C312.242 169.13 313.163 168.529 314.341 167.171L314.358 167.153L314.379 167.137C320.81 162.234 326.397 157.654 334.604 160.498C343.393 160.425 352.21 160.678 360.959 161.119C362.655 160.798 364.542 159.818 366.518 158.664C368.487 157.514 370.544 156.191 372.517 155.254C374.487 154.318 376.436 153.735 378.2 154.112C379.976 154.491 381.494 155.825 382.654 158.545C383.874 159.613 384.693 160.559 385.168 161.4C385.65 162.252 385.79 163.016 385.61 163.687C385.431 164.357 384.947 164.884 384.29 165.293C383.633 165.703 382.784 166.008 381.83 166.23C379.921 166.675 377.538 166.802 375.296 166.734C373.062 166.666 370.948 166.401 369.558 166.054C365.254 165.259 361.288 166.269 357.417 167.883C355.481 168.691 353.574 169.647 351.661 170.601C349.751 171.554 347.834 172.506 345.891 173.295L345.89 173.294C341.888 174.98 338.017 177.117 334.018 179.012C330.031 180.901 325.945 182.536 321.582 183.175L320.892 183.276L321.36 182.759C324.194 179.639 327.873 177.426 331.735 175.486C335.617 173.536 339.645 171.881 343.283 169.844L343.31 169.83L343.339 169.821C344.473 169.507 345.809 168.923 347.024 168.239C348.243 167.553 349.32 166.778 349.95 166.093C350.269 165.747 350.449 165.451 350.499 165.22C350.523 165.11 350.516 165.024 350.488 164.954C350.461 164.884 350.405 164.809 350.299 164.736C350.076 164.583 349.661 164.456 348.971 164.413C348.288 164.369 347.368 164.408 346.168 164.553L346.157 164.555H346.147C342.332 164.691 338.435 164.469 334.603 164.444C330.774 164.419 326.985 164.59 323.309 165.497C321.281 166.905 319.284 168.396 317.283 169.897C315.271 171.406 313.253 172.927 311.199 174.38C307.093 177.288 302.831 179.938 298.146 181.72L298.065 181.75L297.983 181.725C297.28 181.511 296.818 181.195 296.585 180.775C296.35 180.351 296.379 179.878 296.531 179.423C296.683 178.97 296.965 178.504 297.282 178.06C297.601 177.614 297.966 177.174 298.294 176.777C298.626 176.374 298.914 176.021 299.094 175.734C299.184 175.59 299.237 175.479 299.259 175.398C299.281 175.317 299.262 175.305 299.269 175.315C299.272 175.32 299.253 175.287 299.127 175.266C299.005 175.246 298.82 175.244 298.553 175.274C298.02 175.333 297.217 175.51 296.06 175.839L296.059 175.838C275.288 181.85 254.036 186.034 232.75 189.637L232.734 189.64L232.718 189.641C228.641 189.787 225.05 191.397 221.561 193.402C218.091 195.396 214.683 197.806 211.065 199.467L210.943 199.523L210.829 199.453L209.872 198.86L209.804 198.818L209.773 198.743C209.371 197.765 209.589 196.88 210.025 196.084C210.454 195.305 211.121 194.568 211.648 193.899C212.196 193.204 212.586 192.591 212.607 191.997C212.625 191.437 212.311 190.805 211.197 190.079L210.824 189.835L211.227 189.643C212.756 188.915 214.495 188.319 216.325 187.742C218.162 187.162 220.086 186.603 222.011 185.942C225.857 184.62 229.652 182.912 232.567 179.918L232.588 179.897L232.612 179.881C241.835 174.033 251.499 169.045 261.158 164.072C270.817 159.098 280.471 154.138 289.696 148.339C290.368 147.758 291.715 146.929 293.206 146.116C294.719 145.29 296.406 144.468 297.742 143.916C298.409 143.642 298.997 143.43 299.438 143.321C299.655 143.267 299.853 143.233 300.013 143.237ZM237.025 150.141C229.357 154.463 221.44 158.366 213.623 162.424C205.995 166.384 198.456 170.496 191.307 175.302C191.564 175.311 191.857 175.299 192.185 175.263C192.81 175.194 193.542 175.047 194.356 174.837C195.983 174.419 197.919 173.759 199.952 173.019C204.005 171.544 208.459 169.741 211.556 168.928L211.56 168.927C227.203 165.064 243.085 160.266 259.366 160.704L260.165 160.725L259.496 161.163C256.146 163.354 252.313 164.31 248.409 164.996C244.49 165.684 240.523 166.1 236.817 167.2L236.792 167.206C214.422 171.421 193.137 179.809 171.94 188.195L171.927 188.2L171.914 188.204L170.419 188.615L170.329 188.64L170.245 188.6L168.834 187.929L168.692 187.862L168.691 187.705C168.681 185.768 169.5 184.171 170.791 182.8C172.078 181.435 173.842 180.284 175.746 179.227C177.642 178.175 179.727 177.19 181.612 176.193C183.514 175.187 185.239 174.155 186.492 172.981L186.513 172.961L186.538 172.947C202.619 163.69 219.518 155.892 236.818 149.688L237.025 150.141ZM293.884 170.202C292.363 170.194 290.546 170.272 288.947 170.396C287.341 170.521 285.98 170.691 285.357 170.861L285.342 170.865L285.326 170.867C272.186 172.752 259.502 177.56 246.895 181.414C246.819 181.62 246.801 181.767 246.813 181.867C246.825 181.971 246.869 182.035 246.94 182.084C247.02 182.14 247.148 182.184 247.331 182.204C247.511 182.223 247.726 182.218 247.963 182.195C248.436 182.148 248.966 182.031 249.431 181.918C249.659 181.863 249.879 181.808 250.056 181.766C250.215 181.729 250.363 181.699 250.473 181.687L256.13 180.577C269.329 177.976 282.504 175.245 295.338 171.112L295.343 171.11C296.196 170.854 296.682 170.649 296.901 170.497C296.909 170.491 296.915 170.484 296.921 170.479C296.843 170.446 296.726 170.408 296.564 170.375C296.375 170.338 296.143 170.306 295.871 170.281C295.328 170.23 294.645 170.205 293.884 170.202ZM376.651 158.859C375.664 158.65 374.442 159.053 373.516 159.68C373.056 159.991 372.689 160.345 372.469 160.68C372.244 161.023 372.204 161.296 372.284 161.486C372.364 161.674 372.609 161.887 373.214 162.002C373.812 162.116 374.706 162.121 375.974 161.947L375.993 161.945L377.787 161.841L378.501 161.588C378.428 160.708 378.204 160.087 377.895 159.662C377.567 159.211 377.136 158.961 376.651 158.859ZM328.871 149.161C332.956 148.608 337.062 148.252 341.169 148.822L341.701 148.896L341.302 149.255C338.568 151.714 334.459 152.799 330.132 153.447C327.963 153.771 325.725 153.987 323.562 154.207C321.395 154.428 319.303 154.652 317.416 154.992L317.399 154.995H317.383C314.232 155.124 311.068 155.539 307.887 155.873C304.711 156.207 301.525 156.46 298.359 156.256L298.13 156.242L298.126 156.012C298.108 155.109 298.31 154.366 298.7 153.762C299.09 153.16 299.656 152.713 300.339 152.383C301.694 151.728 303.546 151.51 305.521 151.442C306.512 151.407 307.544 151.41 308.571 151.417C309.6 151.425 310.623 151.436 311.604 151.418C313.573 151.383 315.329 151.231 316.575 150.719L316.613 150.703L316.655 150.701C320.718 150.464 324.776 149.715 328.871 149.161Z" stroke="white" stroke-width="0.5"/>
</g>
</g>
<g filter="url(#filter1_d_71_124)">
<ellipse cx="184.936" cy="92.2401" rx="64.5" ry="60" fill="url(#paint0_radial_71_124)"/>
</g>
<g filter="url(#filter2_d_71_124)">
<path d="M238.742 26.5907C329.641 -4.62421 384.521 1.44046 391.436 23.0508C401.604 47.5088 324.219 104.062 218.677 148.588C113.135 193.113 16.2525 209.166 6.08392 184.708C-0.265127 167.331 20.4152 139.333 91.04 98.9111C91.225 99.25 91.2707 100.425 90.9357 101.24C24.8545 141.436 6.30572 169.077 10.6561 182.74C38.3279 216.246 192.081 155.455 218.677 143.74C323.261 98.6241 400.685 40.4394 385.023 23.0508C376.928 7.44429 326.348 1.35435 240.436 27.7401C239.878 27.3483 239.313 26.9649 238.742 26.5907Z" fill="white"/>
</g>
<g filter="url(#filter3_d_71_124)">
<ellipse cx="98.3913" cy="186.966" rx="23.972" ry="22.7263" fill="#6098E2"/>
<mask id="mask0_71_124" style="mask-type:alpha" maskUnits="userSpaceOnUse" x="60" y="168" width="65" height="49">
<path d="M107.714 211.587C108.545 213.556 109.206 214.795 111.043 216.006C112.88 217.216 123.913 213.501 124.361 210.324C124.809 207.147 123.186 204.215 121.032 202.749C118.877 201.283 115.274 200.953 113.707 201.486C112.14 202.02 112.489 202.636 111.043 203.38C109.598 204.124 108.174 204.138 107.048 205.274C105.921 206.41 106.883 209.618 107.714 211.587Z" fill="#155F20"/>
<path d="M95.7856 195.718C95.7856 196.532 95.4708 197.771 96.3102 198.162C97.1496 198.552 98.9332 198.65 99.4578 197.673C99.9824 196.695 100.967 196.503 101.032 195.718C101.096 194.933 100.008 194.887 99.4578 194.289C98.9081 193.692 97.8249 193.007 97.0596 193.391C96.2943 193.775 95.7856 194.903 95.7856 195.718Z" fill="#155F20"/>
<path d="M98.3913 192.017C99.3109 192.671 99.7792 191.154 100.81 191.08C101.841 191.007 102.278 192.027 102.882 191.446C103.486 190.865 104.996 190.072 105.175 189.274C105.355 188.476 106.148 187.499 106.507 186.378C106.866 185.258 106.157 181.977 105.989 181.154C105.821 180.331 105.776 180.42 105.175 179.804C104.575 179.189 102.896 177.765 102.882 178.215C102.867 178.666 103.104 179.99 103.178 180.436C103.251 180.881 103.129 181.459 102.882 182.33C102.634 183.2 103.333 185.176 102.882 186.378C102.43 187.581 101.79 188.115 100.81 188.991C99.8307 189.866 97.3948 190.009 97.1848 191.08C96.9748 192.152 97.4718 191.363 98.3913 192.017Z" fill="#155F20"/>
<path d="M97.7255 175.603C97.7255 174.972 96.3937 172.447 96.3937 172.447C96.3937 172.447 95.7278 171.816 96.3937 171.816C96.6308 171.816 97.2057 172.056 97.8779 172.337C99.0931 172.844 100.626 173.485 101.055 173.078C101.721 172.447 103.053 171.184 103.718 171.816C104.384 172.447 105.05 173.078 105.05 173.709C105.05 174.341 103.718 175.603 103.053 175.603C102.72 175.603 102.72 176.077 102.72 176.629C102.72 177.182 102.72 177.813 102.387 178.128C101.721 178.76 98.3913 178.128 98.3913 178.128C98.3913 178.128 97.7255 178.129 97.7255 178.76C97.7254 179.075 98.2249 179.233 98.7243 179.391C99.2237 179.549 99.7231 179.707 99.7231 180.022C99.7231 180.654 97.7255 181.285 97.0596 181.285C96.3937 181.285 96.3937 180.022 96.3937 179.391C96.3937 179.075 96.7266 178.286 97.0596 177.497C97.3925 176.708 97.7254 175.919 97.7255 175.603Z" fill="#155F20"/>
<path d="M97.7255 188.229C98.3913 184.441 87.0713 179.391 94.396 171.184C94.396 171.184 93.1957 168.803 91.7325 168.659C72.4217 166.765 60.4357 189.492 60.4357 189.492L69.7582 195.489L79.0806 201.486C80.4124 199.171 83.7418 201.486 89.7348 204.643C89.7348 200.224 87.7371 192.017 97.7255 188.229Z" fill="#155F20"/>
</mask>
<g mask="url(#mask0_71_124)">
<ellipse cx="98.3913" cy="186.967" rx="23.972" ry="22.7263" fill="#155F20"/>
</g>
</g>
<defs>
<filter id="filter0_d_71_124" x="168.441" y="142.987" width="221.494" height="60.8198" filterUnits="userSpaceOnUse" color-interpolation-filters="sRGB">
<feFlood flood-opacity="0" result="BackgroundImageFix"/>
<feColorMatrix in="SourceAlpha" type="matrix" values="0 0 0 0 0 0 0 0 0 0 0 0 0 0 0 0 0 0 127 0" result="hardAlpha"/>
<feOffset dx="4" dy="4"/>
<feComposite in2="hardAlpha" operator="out"/>
<feColorMatrix type="matrix" values="0 0 0 0 0.439216 0 0 0 0 0.4 0 0 0 0 0.392157 0 0 0 1 0"/>
<feBlend mode="normal" in2="BackgroundImageFix" result="effect1_dropShadow_71_124"/>
<feBlend mode="normal" in="SourceGraphic" in2="effect1_dropShadow_71_124" result="shape"/>
</filter>
<filter id="filter1_d_71_124" x="89.4357" y="1.24011" width="191" height="182" filterUnits="userSpaceOnUse" color-interpolation-filters="sRGB">
<feFlood flood-opacity="0" result="BackgroundImageFix"/>
<feColorMatrix in="SourceAlpha" type="matrix" values="0 0 0 0 0 0 0 0 0 0 0 0 0 0 0 0 0 0 127 0" result="hardAlpha"/>
<feMorphology radius="1" operator="dilate" in="SourceAlpha" result="effect1_dropShadow_71_124"/>
<feOffset/>
<feGaussianBlur stdDeviation="15"/>
<feComposite in2="hardAlpha" operator="out"/>
<feColorMatrix type="matrix" values="0 0 0 0 1 0 0 0 0 0.392157 0 0 0 0 0.313726 0 0 0 0.8 0"/>
<feBlend mode="normal" in2="BackgroundImageFix" result="effect1_dropShadow_71_124"/>
<feBlend mode="normal" in="SourceGraphic" in2="effect1_dropShadow_71_124" result="shape"/>
</filter>
<filter id="filter2_d_71_124" x="0" y="0" width="397.333" height="201.138" filterUnits="userSpaceOnUse" color-interpolation-filters="sRGB">
<feFlood flood-opacity="0" result="BackgroundImageFix"/>
<feColorMatrix in="SourceAlpha" type="matrix" values="0 0 0 0 0 0 0 0 0 0 0 0 0 0 0 0 0 0 127 0" result="hardAlpha"/>
<feOffset/>
<feGaussianBlur stdDeviation="2.5"/>
<feComposite in2="hardAlpha" operator="out"/>
<feColorMatrix type="matrix" values="0 0 0 0 1 0 0 0 0 1 0 0 0 0 1 0 0 0 1 0"/>
<feBlend mode="normal" in2="BackgroundImageFix" result="effect1_dropShadow_71_124"/>
<feBlend mode="normal" in="SourceGraphic" in2="effect1_dropShadow_71_124" result="shape"/>
</filter>
<filter id="filter3_d_71_124" x="64.4194" y="154.24" width="67.9439" height="65.4528" filterUnits="userSpaceOnUse" color-interpolation-filters="sRGB">
<feFlood flood-opacity="0" result="BackgroundImageFix"/>
<feColorMatrix in="SourceAlpha" type="matrix" values="0 0 0 0 0 0 0 0 0 0 0 0 0 0 0 0 0 0 127 0" result="hardAlpha"/>
<feOffset/>
<feGaussianBlur stdDeviation="5"/>
<feComposite in2="hardAlpha" operator="out"/>
<feColorMatrix type="matrix" values="0 0 0 0 0.376471 0 0 0 0 0.596078 0 0 0 0 0.886275 0 0 0 1 0"/>
<feBlend mode="normal" in2="BackgroundImageFix" result="effect1_dropShadow_71_124"/>
<feBlend mode="normal" in="SourceGraphic" in2="effect1_dropShadow_71_124" result="shape"/>
</filter>
<radialGradient id="paint0_radial_71_124" cx="0" cy="0" r="1" gradientUnits="userSpaceOnUse" gradientTransform="translate(184.936 92.2401) rotate(90) scale(60 64.5)">
<stop stop-color="#BD3C48"/>
<stop offset="1" stop-color="#CD532E"/>
</radialGradient>
<clipPath id="clip0_71_124">
<rect width="233" height="66" fill="white" transform="translate(152.436 133.24)"/>
</clipPath>
</defs>
</svg>
