<svg width="390" height="213" viewBox="0 0 390 213" fill="none" xmlns="http://www.w3.org/2000/svg">
<g clip-path="url(#clip0_62_2)">
<path d="M296.013 139.237C296.092 139.238 296.18 139.25 296.26 139.284C296.345 139.32 296.431 139.388 296.473 139.499C296.512 139.603 296.498 139.707 296.473 139.788C296.447 139.869 296.402 139.95 296.349 140.03C296.242 140.189 296.072 140.379 295.841 140.601C295.377 141.047 294.63 141.656 293.543 142.461L293.544 142.462C279.507 153.123 263.858 161.019 248.599 169.444C248.353 169.682 248.178 169.878 248.065 170.036C247.943 170.204 247.91 170.304 247.906 170.348C247.906 170.351 247.906 170.354 247.906 170.356C247.908 170.357 247.911 170.359 247.915 170.361C247.957 170.384 248.052 170.411 248.229 170.415C248.573 170.421 249.095 170.339 249.754 170.187C250.407 170.036 251.177 169.82 252.007 169.568C253.669 169.063 255.558 168.42 257.236 167.874C258.891 167.335 260.361 166.883 261.174 166.771C273.439 163.505 286.138 160.952 298.867 161.529L300.1 161.595L300.116 161.596L300.133 161.599C301.314 161.831 302.269 162.402 303.102 163.022C303.517 163.331 303.907 163.658 304.276 163.959C304.649 164.263 305.001 164.542 305.352 164.771C306.05 165.228 306.714 165.466 307.471 165.299C308.242 165.13 309.163 164.529 310.341 163.171L310.358 163.153L310.379 163.137C316.81 158.234 322.397 153.654 330.604 156.499C339.393 156.425 348.21 156.678 356.959 157.119C358.655 156.798 360.542 155.818 362.518 154.665C364.487 153.514 366.544 152.191 368.517 151.254C370.487 150.318 372.436 149.735 374.2 150.112C375.976 150.491 377.494 151.825 378.654 154.545C379.874 155.613 380.693 156.559 381.168 157.4C381.65 158.252 381.79 159.016 381.61 159.687C381.431 160.357 380.947 160.884 380.29 161.293C379.633 161.703 378.784 162.008 377.83 162.23C375.921 162.675 373.538 162.802 371.296 162.734C369.062 162.666 366.948 162.401 365.558 162.054C361.254 161.259 357.288 162.269 353.417 163.883C351.481 164.691 349.574 165.647 347.661 166.601C345.751 167.554 343.834 168.506 341.891 169.295L341.89 169.294C337.888 170.98 334.017 173.117 330.018 175.012C326.031 176.901 321.945 178.536 317.582 179.175L316.892 179.276L317.36 178.759C320.194 175.639 323.873 173.426 327.735 171.486C331.617 169.536 335.645 167.881 339.283 165.844L339.31 165.83L339.339 165.821C340.473 165.507 341.809 164.923 343.024 164.239C344.243 163.553 345.32 162.778 345.95 162.093C346.269 161.747 346.449 161.451 346.499 161.22C346.523 161.11 346.516 161.024 346.488 160.954C346.461 160.884 346.405 160.809 346.299 160.736C346.076 160.583 345.661 160.456 344.971 160.413C344.288 160.369 343.368 160.408 342.168 160.553L342.157 160.555H342.147C338.332 160.691 334.435 160.469 330.603 160.444C326.774 160.419 322.985 160.59 319.309 161.497C317.281 162.905 315.284 164.396 313.283 165.897C311.271 167.406 309.253 168.927 307.199 170.38C303.093 173.288 298.831 175.938 294.146 177.72L294.065 177.75L293.983 177.725C293.28 177.511 292.818 177.195 292.585 176.775C292.35 176.351 292.379 175.878 292.531 175.423C292.683 174.97 292.965 174.504 293.282 174.06C293.601 173.614 293.966 173.174 294.294 172.777C294.626 172.374 294.914 172.021 295.094 171.734C295.184 171.59 295.237 171.479 295.259 171.398C295.281 171.317 295.262 171.305 295.269 171.315C295.272 171.32 295.253 171.287 295.127 171.266C295.005 171.246 294.82 171.244 294.553 171.274C294.02 171.333 293.217 171.51 292.06 171.839L292.059 171.838C271.288 177.85 250.036 182.034 228.75 185.637L228.734 185.64L228.718 185.641C224.641 185.787 221.05 187.397 217.561 189.402C214.091 191.396 210.683 193.806 207.065 195.467L206.943 195.523L206.829 195.453L205.872 194.86L205.804 194.818L205.773 194.743C205.371 193.765 205.589 192.88 206.025 192.084C206.454 191.305 207.121 190.568 207.648 189.899C208.196 189.204 208.586 188.591 208.607 187.997C208.625 187.437 208.311 186.805 207.197 186.079L206.824 185.835L207.227 185.643C208.756 184.915 210.495 184.319 212.325 183.742C214.162 183.162 216.086 182.603 218.011 181.942C221.857 180.621 225.652 178.912 228.567 175.918L228.588 175.897L228.612 175.881C237.835 170.033 247.499 165.045 257.158 160.072C266.817 155.098 276.471 150.138 285.696 144.339C286.368 143.758 287.715 142.929 289.206 142.116C290.719 141.29 292.406 140.468 293.742 139.917C294.409 139.642 294.997 139.43 295.438 139.321C295.655 139.267 295.853 139.234 296.013 139.237ZM233.025 146.141C225.357 150.463 217.44 154.366 209.623 158.424C201.995 162.384 194.456 166.496 187.307 171.302C187.564 171.311 187.857 171.299 188.185 171.263C188.81 171.195 189.542 171.047 190.356 170.837C191.983 170.419 193.919 169.759 195.952 169.019C200.005 167.544 204.459 165.741 207.556 164.928L207.56 164.927C223.203 161.064 239.085 156.266 255.366 156.704L256.165 156.725L255.496 157.163C252.146 159.354 248.313 160.31 244.409 160.996C240.49 161.684 236.523 162.1 232.817 163.2L232.792 163.206C210.422 167.421 189.137 175.809 167.94 184.195L167.927 184.2L167.914 184.204L166.419 184.615L166.329 184.64L166.245 184.6L164.834 183.929L164.692 183.862L164.691 183.705C164.681 181.768 165.5 180.171 166.791 178.8C168.078 177.435 169.842 176.284 171.746 175.227C173.642 174.175 175.727 173.19 177.612 172.193C179.514 171.187 181.239 170.155 182.492 168.981L182.513 168.961L182.538 168.947C198.619 159.691 215.518 151.892 232.818 145.688L233.025 146.141ZM289.884 166.202C288.363 166.194 286.546 166.272 284.947 166.396C283.341 166.521 281.98 166.691 281.357 166.861L281.342 166.865L281.326 166.867C268.186 168.752 255.502 173.56 242.895 177.414C242.819 177.621 242.801 177.767 242.813 177.867C242.825 177.971 242.869 178.035 242.94 178.084C243.02 178.14 243.148 178.184 243.331 178.204C243.511 178.223 243.726 178.218 243.963 178.195C244.436 178.148 244.966 178.031 245.431 177.918C245.659 177.863 245.879 177.808 246.056 177.766C246.215 177.729 246.363 177.699 246.473 177.687L252.13 176.577C265.329 173.976 278.504 171.245 291.338 167.112L291.343 167.11C292.196 166.854 292.682 166.649 292.901 166.497C292.909 166.491 292.915 166.484 292.921 166.479C292.843 166.446 292.726 166.408 292.564 166.375C292.375 166.338 292.143 166.306 291.871 166.281C291.328 166.23 290.645 166.205 289.884 166.202ZM372.651 154.859C371.664 154.65 370.442 155.053 369.516 155.68C369.056 155.991 368.689 156.345 368.469 156.68C368.244 157.023 368.204 157.296 368.284 157.486C368.364 157.674 368.609 157.887 369.214 158.002C369.812 158.116 370.706 158.121 371.974 157.947L371.993 157.945L373.787 157.841L374.501 157.588C374.428 156.708 374.204 156.087 373.895 155.662C373.567 155.211 373.136 154.961 372.651 154.859ZM324.871 145.161C328.956 144.608 333.062 144.252 337.169 144.822L337.701 144.896L337.302 145.255C334.568 147.714 330.459 148.799 326.132 149.447C323.963 149.771 321.725 149.988 319.562 150.208C317.395 150.428 315.303 150.652 313.416 150.992L313.399 150.995H313.383C310.232 151.124 307.068 151.539 303.887 151.874C300.711 152.207 297.525 152.46 294.359 152.256L294.13 152.242L294.126 152.012C294.108 151.109 294.31 150.366 294.7 149.762C295.09 149.16 295.656 148.714 296.339 148.383C297.694 147.728 299.546 147.51 301.521 147.442C302.512 147.407 303.544 147.41 304.571 147.417C305.6 147.425 306.623 147.436 307.604 147.418C309.573 147.383 311.329 147.231 312.575 146.719L312.613 146.703L312.655 146.701C316.718 146.464 320.776 145.715 324.871 145.161Z" fill="white" stroke="white" stroke-width="0.5"/>
</g>
<ellipse cx="180.936" cy="88.2401" rx="64.5" ry="60" fill="#CC5230"/>
<g filter="url(#filter0_f_62_2)">
<path d="M234.742 22.5907C325.641 -8.62421 380.521 -2.55954 387.436 19.0508C397.604 43.5088 320.219 100.062 214.677 144.588C109.135 189.113 12.2525 205.166 2.08392 180.708C-4.26513 163.331 16.4152 135.333 87.04 94.9111C87.225 95.25 87.2707 96.4253 86.9357 97.2401C20.8545 137.436 2.30572 165.077 6.65608 178.74C34.3279 212.246 188.081 151.455 214.677 139.74C319.261 94.6241 396.685 36.4394 381.023 19.0508C372.928 3.44429 322.348 -2.64565 236.436 23.7401C235.878 23.3483 235.313 22.9649 234.742 22.5907Z" fill="white"/>
</g>
<g filter="url(#filter1_f_62_2)">
<ellipse cx="94.3913" cy="182.966" rx="23.972" ry="22.7263" fill="#6098E2"/>
<mask id="mask0_62_2" style="mask-type:alpha" maskUnits="userSpaceOnUse" x="56" y="164" width="65" height="49">
<path d="M103.714 207.587C104.545 209.556 105.207 210.795 107.043 212.006C108.88 213.216 119.913 209.501 120.361 206.324C120.809 203.147 119.186 200.215 117.032 198.749C114.877 197.283 111.274 196.953 109.707 197.486C108.14 198.02 108.489 198.636 107.043 199.38C105.598 200.124 104.174 200.138 103.048 201.274C101.921 202.41 102.883 205.618 103.714 207.587Z" fill="#155F20"/>
<path d="M91.7856 191.718C91.7856 192.532 91.4708 193.771 92.3102 194.162C93.1496 194.552 94.9332 194.65 95.4578 193.673C95.9824 192.695 96.9668 192.503 97.0316 191.718C97.0964 190.933 96.0075 190.887 95.4578 190.289C94.9081 189.692 93.8249 189.007 93.0596 189.391C92.2943 189.775 91.7856 190.903 91.7856 191.718Z" fill="#155F20"/>
<path d="M94.3913 188.017C95.3109 188.671 95.7792 187.154 96.8102 187.08C97.8412 187.007 98.2777 188.027 98.8818 187.446C99.4859 186.865 100.996 186.072 101.175 185.274C101.355 184.476 102.148 183.499 102.507 182.378C102.866 181.258 102.157 177.977 101.989 177.154C101.821 176.331 101.776 176.42 101.175 175.804C100.575 175.189 98.8963 173.765 98.8818 174.215C98.8674 174.666 99.1042 175.99 99.1778 176.436C99.2514 176.881 99.1292 177.459 98.8818 178.33C98.6345 179.2 99.3332 181.176 98.8818 182.378C98.4305 183.581 97.7896 184.115 96.8102 184.991C95.8307 185.866 93.3948 186.009 93.1848 187.08C92.9748 188.152 93.4718 187.363 94.3913 188.017Z" fill="#155F20"/>
<path d="M93.7255 171.603C93.7255 170.972 92.3937 168.447 92.3937 168.447C92.3937 168.447 91.7278 167.816 92.3937 167.816C92.6308 167.816 93.2057 168.056 93.8779 168.337C95.0931 168.844 96.6261 169.485 97.0549 169.078C97.7208 168.447 99.0526 167.184 99.7184 167.816C100.384 168.447 101.05 169.078 101.05 169.709C101.05 170.341 99.7184 171.603 99.0526 171.603C98.7196 171.603 98.7196 172.077 98.7196 172.629C98.7196 173.182 98.7196 173.813 98.3867 174.128C97.7208 174.76 94.3913 174.128 94.3913 174.128C94.3913 174.128 93.7255 174.129 93.7255 174.76C93.7254 175.075 94.2249 175.233 94.7243 175.391C95.2237 175.549 95.7231 175.707 95.7231 176.022C95.7231 176.654 93.7255 177.285 93.0596 177.285C92.3937 177.285 92.3937 176.022 92.3937 175.391C92.3937 175.075 92.7266 174.286 93.0596 173.497C93.3925 172.708 93.7254 171.919 93.7255 171.603Z" fill="#155F20"/>
<path d="M93.7255 184.229C94.3913 180.441 83.0713 175.391 90.396 167.184C90.396 167.184 89.1957 164.803 87.7325 164.659C68.4217 162.765 56.4357 185.492 56.4357 185.492L65.7582 191.489L75.0806 197.486C76.4124 195.171 79.7418 197.486 85.7348 200.643C85.7348 196.224 83.7371 188.017 93.7255 184.229Z" fill="#155F20"/>
</mask>
<g mask="url(#mask0_62_2)">
<ellipse cx="94.3913" cy="182.967" rx="23.972" ry="22.7263" fill="#155F20"/>
</g>
</g>
<defs>
<filter id="filter0_f_62_2" x="0" y="0" width="389.333" height="193.138" filterUnits="userSpaceOnUse" color-interpolation-filters="sRGB">
<feFlood flood-opacity="0" result="BackgroundImageFix"/>
<feBlend mode="normal" in="SourceGraphic" in2="BackgroundImageFix" result="shape"/>
<feGaussianBlur stdDeviation="0.5" result="effect1_foregroundBlur_62_2"/>
</filter>
<filter id="filter1_f_62_2" x="69.4194" y="159.24" width="49.944" height="47.4528" filterUnits="userSpaceOnUse" color-interpolation-filters="sRGB">
<feFlood flood-opacity="0" result="BackgroundImageFix"/>
<feBlend mode="normal" in="SourceGraphic" in2="BackgroundImageFix" result="shape"/>
<feGaussianBlur stdDeviation="0.5" result="effect1_foregroundBlur_62_2"/>
</filter>
<clipPath id="clip0_62_2">
<rect width="233" height="66" fill="white" transform="translate(148.436 129.24)"/>
</clipPath>
</defs>
</svg>
