<svg width="390" height="215" viewBox="0 0 390 215" fill="none" xmlns="http://www.w3.org/2000/svg">
<g clip-path="url(#clip0_68_2)">
<g filter="url(#filter0_d_68_2)">
<path d="M206.004 197.407C204.552 193.871 211.92 191.619 207.334 188.629C213.385 185.749 222.832 184.925 228.746 178.853C247.169 167.17 267.362 158.922 285.841 147.305C288.408 145.058 302.08 138.585 293.393 145.023C279.365 155.677 263.729 163.565 248.448 172.001C244.227 176.059 258.096 170.194 261.222 169.777C273.88 166.406 286.978 163.8 300.084 164.604C304.6 165.49 305.768 171.585 310.53 166.095C316.998 161.164 322.48 156.686 330.563 159.509C339.371 159.434 348.209 159.688 356.979 160.13C363.981 158.833 373.873 146.611 378.447 157.456C388.307 166.042 371.071 165.94 365.603 164.569C356.859 162.953 349.531 168.682 341.797 171.823C333.783 175.198 326.198 180.42 317.546 181.688C323.151 175.517 332.125 172.897 339.406 168.822C344.039 167.539 351.805 161.892 342.138 163.065C334.519 163.336 326.645 162.176 319.204 164.025C311.023 169.703 303.37 176.704 294.057 180.246C288.674 178.606 301.276 171.715 291.991 174.358C271.233 180.367 249.991 184.548 228.709 188.151C220.432 188.447 214.175 194.688 206.961 198L206.004 197.407ZM246.521 180.692C261.602 177.733 276.73 174.839 291.414 170.109C298.237 168.062 283.888 168.671 281.291 169.379C268.084 171.274 255.328 176.119 242.704 179.971C241.749 182.242 245.809 180.747 246.521 180.692ZM374.766 160.519C374.31 152.434 361.767 162.362 372.008 160.954L373.835 160.85L374.766 160.519ZM164.942 186.463C164.9 179.035 177.546 176.718 182.663 171.924C198.731 162.675 215.617 154.882 232.903 148.683C217.576 157.322 201.269 164.275 186.622 174.221C189.898 175.106 201.455 169.548 207.62 167.93C223.283 164.062 239.121 159.276 255.359 159.713C248.747 164.039 240.193 163.509 232.746 165.72C210.349 169.94 189.042 178.338 167.848 186.722L166.353 187.134L164.942 186.463ZM294.376 154.767C294.238 147.875 307.492 151.837 312.67 149.71C320.821 149.235 328.991 146.7 337.134 147.83C331.786 152.64 320.964 152.139 313.372 153.505C307.049 153.765 300.662 155.171 294.376 154.767Z" fill="white"/>
<path d="M296.013 141.997C296.092 141.998 296.18 142.009 296.26 142.044C296.345 142.08 296.431 142.147 296.473 142.258C296.512 142.363 296.498 142.467 296.473 142.547C296.447 142.629 296.402 142.71 296.349 142.79C296.242 142.949 296.072 143.139 295.841 143.361C295.377 143.807 294.63 144.415 293.543 145.221L293.544 145.222C279.507 155.883 263.858 163.779 248.599 172.204C248.353 172.442 248.178 172.638 248.065 172.795C247.943 172.964 247.91 173.064 247.906 173.108C247.906 173.111 247.906 173.114 247.906 173.116C247.908 173.117 247.911 173.119 247.915 173.121C247.957 173.144 248.052 173.171 248.229 173.174C248.573 173.181 249.095 173.099 249.754 172.947C250.407 172.796 251.177 172.58 252.007 172.328C253.669 171.823 255.558 171.18 257.236 170.633C258.891 170.094 260.361 169.642 261.174 169.531C273.439 166.265 286.138 163.712 298.867 164.289L300.1 164.355L300.116 164.356L300.133 164.359C301.314 164.591 302.269 165.162 303.102 165.782C303.517 166.091 303.907 166.418 304.276 166.719C304.649 167.023 305.001 167.302 305.352 167.531C306.05 167.987 306.714 168.225 307.471 168.059C308.242 167.89 309.163 167.289 310.341 165.931L310.358 165.913L310.379 165.897C316.81 160.994 322.397 156.414 330.604 159.258C339.393 159.185 348.21 159.438 356.959 159.878C358.655 159.558 360.542 158.578 362.518 157.424C364.487 156.274 366.544 154.951 368.517 154.014C370.487 153.078 372.436 152.495 374.2 152.872C375.976 153.251 377.494 154.585 378.654 157.305C379.874 158.373 380.693 159.319 381.168 160.16C381.65 161.012 381.79 161.775 381.61 162.447C381.431 163.117 380.947 163.644 380.29 164.053C379.633 164.462 378.784 164.767 377.83 164.99C375.921 165.435 373.538 165.562 371.296 165.494C369.062 165.425 366.948 165.161 365.558 164.814C361.254 164.019 357.288 165.029 353.417 166.643C351.481 167.451 349.574 168.406 347.661 169.361C345.751 170.314 343.834 171.266 341.891 172.055L341.89 172.054C337.888 173.74 334.017 175.877 330.018 177.772C326.031 179.661 321.945 181.296 317.582 181.935L316.892 182.036L317.36 181.519C320.194 178.399 323.873 176.185 327.735 174.246C331.617 172.296 335.645 170.64 339.283 168.604L339.31 168.589L339.339 168.581C340.473 168.267 341.809 167.683 343.024 166.999C344.243 166.313 345.32 165.538 345.95 164.853C346.269 164.507 346.449 164.21 346.499 163.98C346.523 163.87 346.516 163.784 346.488 163.713C346.461 163.643 346.405 163.569 346.299 163.496C346.076 163.343 345.661 163.216 344.971 163.172C344.288 163.129 343.368 163.167 342.168 163.313L342.157 163.315H342.147C338.332 163.451 334.435 163.229 330.603 163.204C326.774 163.179 322.985 163.349 319.309 164.256C317.281 165.665 315.284 167.156 313.283 168.657C311.271 170.166 309.253 171.686 307.199 173.14C303.093 176.048 298.831 178.698 294.146 180.48L294.065 180.51L293.983 180.485C293.28 180.271 292.818 179.955 292.585 179.535C292.35 179.11 292.379 178.638 292.531 178.183C292.683 177.73 292.965 177.264 293.282 176.82C293.601 176.374 293.966 175.934 294.294 175.537C294.626 175.133 294.914 174.781 295.094 174.494C295.184 174.35 295.237 174.239 295.259 174.158C295.281 174.077 295.262 174.065 295.269 174.075C295.272 174.08 295.253 174.047 295.127 174.026C295.005 174.006 294.82 174.004 294.553 174.034C294.02 174.093 293.217 174.27 292.06 174.599L292.059 174.598C271.288 180.61 250.036 184.793 228.75 188.397L228.734 188.4L228.718 188.401C224.641 188.547 221.05 190.157 217.561 192.162C214.091 194.155 210.683 196.566 207.065 198.227L206.943 198.283L206.829 198.212L205.872 197.62L205.804 197.578L205.773 197.503C205.371 196.525 205.589 195.64 206.025 194.844C206.454 194.065 207.121 193.328 207.648 192.659C208.196 191.964 208.586 191.351 208.607 190.756C208.625 190.197 208.311 189.565 207.197 188.838L206.824 188.595L207.227 188.403C208.756 187.675 210.495 187.079 212.325 186.502C214.162 185.922 216.086 185.363 218.011 184.702C221.857 183.38 225.652 181.671 228.567 178.678L228.588 178.657L228.612 178.641C237.835 172.793 247.499 167.805 257.158 162.832C266.817 157.858 276.471 152.898 285.696 147.099C286.368 146.518 287.715 145.689 289.206 144.876C290.719 144.05 292.406 143.228 293.742 142.676C294.409 142.401 294.997 142.19 295.438 142.081C295.655 142.027 295.853 141.993 296.013 141.997ZM233.025 148.901C225.357 153.223 217.44 157.126 209.623 161.184C201.995 165.144 194.456 169.256 187.307 174.062C187.564 174.071 187.857 174.059 188.185 174.023C188.81 173.954 189.542 173.806 190.356 173.597C191.983 173.179 193.919 172.519 195.952 171.779C200.005 170.304 204.459 168.501 207.556 167.688L207.56 167.687C223.203 163.824 239.085 159.026 255.366 159.463L256.165 159.485L255.496 159.922C252.146 162.114 248.313 163.069 244.409 163.755C240.49 164.444 236.523 164.86 232.817 165.96L232.792 165.965C210.422 170.181 189.137 178.568 167.94 186.955L167.927 186.96L167.914 186.963L166.419 187.375L166.329 187.4L166.245 187.36L164.834 186.689L164.692 186.622L164.691 186.464C164.681 184.527 165.5 182.931 166.791 181.56C168.078 180.195 169.842 179.044 171.746 177.987C173.642 176.934 175.727 175.95 177.612 174.953C179.514 173.947 181.239 172.915 182.492 171.741L182.513 171.721L182.538 171.707C198.619 162.45 215.518 154.652 232.818 148.448L233.025 148.901ZM289.884 168.961C288.363 168.954 286.546 169.032 284.947 169.156C283.341 169.281 281.98 169.451 281.357 169.621L281.342 169.625L281.326 169.627C268.186 171.512 255.502 176.32 242.895 180.173C242.819 180.38 242.801 180.526 242.813 180.627C242.825 180.731 242.869 180.795 242.94 180.844C243.02 180.9 243.148 180.943 243.331 180.963C243.511 180.983 243.726 180.978 243.963 180.955C244.436 180.908 244.966 180.79 245.431 180.678C245.659 180.623 245.879 180.568 246.056 180.526C246.215 180.488 246.363 180.459 246.473 180.447L252.13 179.336C265.329 176.736 278.504 174.005 291.338 169.872L291.343 169.87C292.196 169.613 292.682 169.409 292.901 169.256C292.909 169.251 292.915 169.244 292.921 169.239C292.843 169.205 292.726 169.168 292.564 169.135C292.375 169.098 292.143 169.066 291.871 169.041C291.328 168.99 290.645 168.965 289.884 168.961ZM372.651 157.619C371.664 157.41 370.442 157.813 369.516 158.44C369.056 158.751 368.689 159.105 368.469 159.44C368.244 159.783 368.204 160.056 368.284 160.246C368.364 160.434 368.609 160.647 369.214 160.762C369.812 160.876 370.706 160.881 371.974 160.707L371.993 160.705L373.787 160.601L374.501 160.348C374.428 159.468 374.204 158.847 373.895 158.421C373.567 157.971 373.136 157.721 372.651 157.619ZM324.871 147.92C328.956 147.368 333.062 147.012 337.169 147.582L337.701 147.656L337.302 148.015C334.568 150.474 330.459 151.559 326.132 152.207C323.963 152.531 321.725 152.747 319.562 152.967C317.395 153.188 315.303 153.412 313.416 153.752L313.399 153.754H313.383C310.232 153.884 307.068 154.299 303.887 154.633C300.711 154.967 297.525 155.22 294.359 155.016L294.13 155.002L294.126 154.772C294.108 153.869 294.31 153.126 294.7 152.522C295.09 151.92 295.656 151.473 296.339 151.143C297.694 150.487 299.546 150.27 301.521 150.202C302.512 150.167 303.544 150.17 304.571 150.177C305.6 150.184 306.623 150.196 307.604 150.178C309.573 150.143 311.329 149.991 312.575 149.479L312.613 149.462L312.655 149.461C316.718 149.224 320.776 148.475 324.871 147.92Z" stroke="white" stroke-width="0.5"/>
</g>
</g>
<g filter="url(#filter1_d_68_2)">
<ellipse cx="180.936" cy="91" rx="64.5" ry="60" fill="url(#paint0_radial_68_2)"/>
</g>
<g filter="url(#filter2_f_68_2)">
<path d="M234.742 25.3506C325.641 -5.86432 380.521 0.200352 387.436 21.8106C397.604 46.2687 320.219 102.822 214.677 147.348C109.135 191.873 12.2525 207.925 2.08392 183.468C-4.26513 166.091 16.4152 138.093 87.04 97.671C87.225 98.0099 87.2707 99.1852 86.9357 100C20.8545 140.196 2.30572 167.837 6.65608 181.5C34.3279 215.006 188.081 154.215 214.677 142.5C319.261 97.384 396.685 39.1993 381.023 21.8106C372.928 6.20418 322.348 0.114235 236.436 26.5C235.878 26.1082 235.313 25.7248 234.742 25.3506Z" fill="white"/>
</g>
<g filter="url(#filter3_f_68_2)">
<ellipse cx="94.3913" cy="185.726" rx="23.972" ry="22.7263" fill="#6098E2"/>
<mask id="mask0_68_2" style="mask-type:alpha" maskUnits="userSpaceOnUse" x="56" y="167" width="65" height="48">
<path d="M103.714 210.346C104.545 212.315 105.206 213.555 107.043 214.766C108.88 215.976 119.913 212.261 120.361 209.084C120.809 205.907 119.186 202.974 117.032 201.508C114.877 200.043 111.274 199.712 109.707 200.246C108.14 200.779 108.489 201.396 107.043 202.14C105.598 202.883 104.174 202.898 103.048 204.034C101.921 205.17 102.883 208.378 103.714 210.346Z" fill="#155F20"/>
<path d="M91.7856 194.478C91.7856 195.292 91.4708 196.53 92.3102 196.921C93.1496 197.312 94.9332 197.41 95.4578 196.433C95.9824 195.455 96.9668 195.262 97.0316 194.478C97.0964 193.693 96.0075 193.647 95.4578 193.049C94.9081 192.452 93.8249 191.767 93.0596 192.151C92.2943 192.534 91.7856 193.663 91.7856 194.478Z" fill="#155F20"/>
<path d="M94.3913 190.777C95.3109 191.431 95.7792 189.914 96.8102 189.84C97.8412 189.766 98.2777 190.787 98.8818 190.206C99.4859 189.624 100.996 188.832 101.175 188.033C101.355 187.235 102.148 186.259 102.507 185.138C102.866 184.018 102.157 180.737 101.989 179.914C101.821 179.091 101.776 179.18 101.175 178.564C100.575 177.949 98.8963 176.524 98.8818 176.975C98.8674 177.426 99.1042 178.75 99.1778 179.195C99.2514 179.641 99.1292 180.219 98.8818 181.089C98.6345 181.96 99.3332 183.936 98.8818 185.138C98.4305 186.341 97.7896 186.875 96.8102 187.75C95.8307 188.626 93.3948 188.769 93.1848 189.84C92.9748 190.912 93.4718 190.123 94.3913 190.777Z" fill="#155F20"/>
<path d="M93.7255 174.363C93.7255 173.732 92.3937 171.207 92.3937 171.207C92.3937 171.207 91.7278 170.575 92.3937 170.575C92.6308 170.575 93.2057 170.816 93.8779 171.096C95.0931 171.604 96.6261 172.244 97.0549 171.838C97.7208 171.207 99.0526 169.944 99.7184 170.575C100.384 171.207 101.05 171.838 101.05 172.469C101.05 173.101 99.7184 174.363 99.0526 174.363C98.7196 174.363 98.7196 174.837 98.7196 175.389C98.7196 175.941 98.7196 176.573 98.3867 176.888C97.7208 177.52 94.3913 176.888 94.3913 176.888C94.3913 176.888 93.7255 176.888 93.7255 177.52C93.7254 177.835 94.2249 177.993 94.7243 178.151C95.2237 178.309 95.7231 178.467 95.7231 178.782C95.7231 179.413 93.7255 180.045 93.0596 180.045C92.3937 180.045 92.3937 178.782 92.3937 178.151C92.3937 177.835 92.7266 177.046 93.0596 176.257C93.3925 175.468 93.7254 174.679 93.7255 174.363Z" fill="#155F20"/>
<path d="M93.7254 186.989C94.3913 183.201 83.0712 178.151 90.396 169.944C90.396 169.944 89.1957 167.563 87.7325 167.419C68.4217 165.525 56.4357 188.251 56.4357 188.251L65.7581 194.249L75.0806 200.246C76.4124 197.931 79.7418 200.246 85.7348 203.402C85.7348 198.983 83.7371 190.777 93.7254 186.989Z" fill="#155F20"/>
</mask>
<g mask="url(#mask0_68_2)">
<ellipse cx="94.3913" cy="185.726" rx="23.972" ry="22.7263" fill="#155F20"/>
</g>
</g>
<defs>
<filter id="filter0_d_68_2" x="164.441" y="141.747" width="221.494" height="60.8198" filterUnits="userSpaceOnUse" color-interpolation-filters="sRGB">
<feFlood flood-opacity="0" result="BackgroundImageFix"/>
<feColorMatrix in="SourceAlpha" type="matrix" values="0 0 0 0 0 0 0 0 0 0 0 0 0 0 0 0 0 0 127 0" result="hardAlpha"/>
<feOffset dx="4" dy="4"/>
<feComposite in2="hardAlpha" operator="out"/>
<feColorMatrix type="matrix" values="0 0 0 0 0.439216 0 0 0 0 0.4 0 0 0 0 0.392157 0 0 0 1 0"/>
<feBlend mode="normal" in2="BackgroundImageFix" result="effect1_dropShadow_68_2"/>
<feBlend mode="normal" in="SourceGraphic" in2="effect1_dropShadow_68_2" result="shape"/>
</filter>
<filter id="filter1_d_68_2" x="85.4357" y="0" width="191" height="182" filterUnits="userSpaceOnUse" color-interpolation-filters="sRGB">
<feFlood flood-opacity="0" result="BackgroundImageFix"/>
<feColorMatrix in="SourceAlpha" type="matrix" values="0 0 0 0 0 0 0 0 0 0 0 0 0 0 0 0 0 0 127 0" result="hardAlpha"/>
<feMorphology radius="1" operator="dilate" in="SourceAlpha" result="effect1_dropShadow_68_2"/>
<feOffset/>
<feGaussianBlur stdDeviation="15"/>
<feComposite in2="hardAlpha" operator="out"/>
<feColorMatrix type="matrix" values="0 0 0 0 1 0 0 0 0 0.392157 0 0 0 0 0.313726 0 0 0 0.8 0"/>
<feBlend mode="normal" in2="BackgroundImageFix" result="effect1_dropShadow_68_2"/>
<feBlend mode="normal" in="SourceGraphic" in2="effect1_dropShadow_68_2" result="shape"/>
</filter>
<filter id="filter2_f_68_2" x="0" y="2.75989" width="389.333" height="193.138" filterUnits="userSpaceOnUse" color-interpolation-filters="sRGB">
<feFlood flood-opacity="0" result="BackgroundImageFix"/>
<feBlend mode="normal" in="SourceGraphic" in2="BackgroundImageFix" result="shape"/>
<feGaussianBlur stdDeviation="0.5" result="effect1_foregroundBlur_68_2"/>
</filter>
<filter id="filter3_f_68_2" x="69.4194" y="162" width="49.9439" height="47.4526" filterUnits="userSpaceOnUse" color-interpolation-filters="sRGB">
<feFlood flood-opacity="0" result="BackgroundImageFix"/>
<feBlend mode="normal" in="SourceGraphic" in2="BackgroundImageFix" result="shape"/>
<feGaussianBlur stdDeviation="0.5" result="effect1_foregroundBlur_68_2"/>
</filter>
<radialGradient id="paint0_radial_68_2" cx="0" cy="0" r="1" gradientUnits="userSpaceOnUse" gradientTransform="translate(180.936 91) rotate(90) scale(60 64.5)">
<stop stop-color="#BD3C48"/>
<stop offset="1" stop-color="#CD532E"/>
</radialGradient>
<clipPath id="clip0_68_2">
<rect width="233" height="66" fill="white" transform="translate(148.436 132)"/>
</clipPath>
</defs>
</svg>
