<svg xmlns="http://www.w3.org/2000/svg" width="512" height="512" fill="none" viewBox="0 0 512 512"><g clip-path="url(#a)" filter="url(#b)"><path fill="#fff" d="M267.004 338.648c-1.452-3.537 5.916-5.789 1.33-8.779 6.051-2.88 15.498-3.704 21.412-9.776 18.423-11.683 38.616-19.931 57.095-31.548 2.567-2.247 16.239-8.72 7.552-2.282-14.028 10.654-29.664 18.542-44.945 26.979-4.221 4.057 9.648-1.808 12.774-2.225 12.658-3.371 25.756-5.977 38.862-5.173 4.516.886 5.684 6.982 10.446 1.492 6.468-4.932 11.95-9.41 20.033-6.587 8.808-.075 17.646.179 26.416.621 7.002-1.297 16.894-13.519 21.468-2.674 9.86 8.586-7.376 8.484-12.844 7.113-8.744-1.616-16.072 4.113-23.806 7.254-8.014 3.375-15.599 8.597-24.251 9.865 5.605-6.171 14.579-8.791 21.86-12.866 4.633-1.283 12.399-6.93 2.732-5.757-7.619.271-15.493-.889-22.934.96-8.181 5.678-15.834 12.679-25.147 16.221-5.383-1.64 7.219-8.531-2.066-5.888-20.758 6.009-42 10.19-63.282 13.793-8.277.296-14.534 6.538-21.748 9.849zm40.517-16.716c15.081-2.959 30.209-5.853 44.893-10.582 6.823-2.048-7.526-1.439-10.123-.731-13.207 1.895-25.963 6.74-38.587 10.593-.955 2.27 3.105.775 3.817.72m128.245-20.172c-.456-8.086-12.999 1.842-2.758.434l1.827-.104zm-209.824 25.943c-.042-7.428 12.604-9.745 17.721-14.539a312 312 0 0 1 50.24-23.241c-15.327 8.639-31.634 15.593-46.281 25.538 3.276.886 14.833-4.673 20.998-6.291 15.663-3.868 31.501-8.653 47.739-8.217-6.612 4.326-15.166 3.796-22.613 6.007-22.397 4.22-43.704 12.618-64.898 21.002l-1.495.412zm129.434-31.696c-.138-6.892 13.116-2.93 18.294-5.057 8.151-.475 16.321-3.01 24.464-1.88-5.348 4.81-16.17 4.31-23.762 5.675-6.323.26-12.71 1.667-18.996 1.262"/><path stroke="#fff" stroke-width=".5" d="M357.013 283.237a.6.6 0 0 1 .247.047.38.38 0 0 1 .213.214.45.45 0 0 1 0 .29 1 1 0 0 1-.124.242 3.8 3.8 0 0 1-.508.571c-.464.446-1.211 1.055-2.298 1.86l.001.001c-14.037 10.661-29.686 18.557-44.945 26.982a4.6 4.6 0 0 0-.534.592c-.122.168-.155.268-.159.312v.008l.009.005c.042.023.137.05.314.053.344.007.866-.075 1.525-.227a36 36 0 0 0 2.253-.619c1.662-.505 3.551-1.148 5.229-1.695 1.655-.538 3.125-.99 3.938-1.102 12.265-3.266 24.964-5.819 37.693-5.242l1.233.066.016.001.017.003c1.181.232 2.136.803 2.969 1.423.415.309.805.636 1.174.937.373.304.725.583 1.076.812.698.456 1.362.694 2.119.528.771-.169 1.692-.77 2.87-2.128l.017-.018.021-.016c6.431-4.903 12.018-9.483 20.225-6.639 8.789-.073 17.606.18 26.355.621 1.696-.321 3.583-1.301 5.559-2.455 1.969-1.15 4.026-2.473 5.999-3.41 1.97-.936 3.919-1.519 5.683-1.142 1.776.379 3.294 1.713 4.454 4.433 1.22 1.068 2.039 2.014 2.514 2.855.482.852.622 1.616.442 2.287-.179.67-.663 1.197-1.32 1.606s-1.506.715-2.46.937c-1.909.445-4.292.572-6.534.504-2.234-.068-4.348-.333-5.738-.68-4.304-.795-8.27.215-12.141 1.829-1.936.808-3.843 1.764-5.756 2.718-1.91.953-3.827 1.905-5.77 2.694l-.001-.001c-4.002 1.686-7.873 3.823-11.872 5.718-3.987 1.889-8.073 3.524-12.436 4.163l-.69.101.468-.517c2.834-3.12 6.513-5.333 10.375-7.273 3.882-1.95 7.91-3.605 11.548-5.642l.027-.014.029-.009c1.134-.314 2.47-.898 3.685-1.582 1.219-.686 2.296-1.461 2.926-2.146.319-.346.499-.642.549-.873a.45.45 0 0 0-.011-.266.5.5 0 0 0-.189-.218c-.223-.153-.638-.28-1.328-.323-.683-.044-1.603-.005-2.803.14l-.011.002h-.01c-3.815.136-7.712-.086-11.544-.111-3.829-.025-7.618.146-11.294 1.053-2.028 1.408-4.025 2.899-6.026 4.4-2.012 1.509-4.03 3.03-6.084 4.483-4.106 2.908-8.368 5.558-13.053 7.34l-.081.03-.082-.025c-.703-.214-1.165-.53-1.398-.95-.235-.424-.206-.897-.054-1.352.152-.453.434-.919.751-1.363.319-.446.684-.886 1.012-1.283.332-.403.62-.756.8-1.043q.133-.215.165-.336c.022-.081.003-.093.01-.083.003.005-.016-.028-.142-.049a2.2 2.2 0 0 0-.574.008c-.533.059-1.336.236-2.493.565l-.001-.001c-20.771 6.012-42.023 10.196-63.309 13.799l-.016.003-.016.001c-4.077.146-7.668 1.756-11.157 3.761-3.47 1.994-6.878 4.404-10.496 6.065l-.122.056-.114-.07-.957-.593-.068-.042-.031-.075c-.402-.978-.184-1.863.252-2.659.429-.779 1.096-1.516 1.623-2.185.548-.695.938-1.308.959-1.902.018-.56-.296-1.192-1.41-1.918l-.373-.244.403-.192c1.529-.728 3.268-1.324 5.098-1.901 1.837-.58 3.761-1.139 5.686-1.8 3.846-1.322 7.641-3.03 10.556-6.024l.021-.021.024-.016c9.223-5.848 18.887-10.836 28.546-15.809 9.659-4.974 19.313-9.934 28.538-15.733.672-.581 2.019-1.41 3.51-2.223 1.513-.826 3.2-1.648 4.536-2.2.667-.274 1.255-.486 1.696-.595.217-.054.415-.088.575-.084Zm-62.988 6.904c-7.668 4.322-15.585 8.225-23.402 12.283-7.628 3.96-15.167 8.072-22.316 12.878q.386.014.878-.039c.625-.069 1.357-.216 2.171-.426 1.627-.418 3.563-1.078 5.596-1.818 4.053-1.475 8.507-3.278 11.604-4.091l.004-.001c15.643-3.863 31.525-8.661 47.806-8.223l.799.021-.669.438c-3.35 2.191-7.183 3.147-11.087 3.833-3.919.688-7.886 1.104-11.592 2.204l-.025.006c-22.37 4.215-43.655 12.603-64.852 20.989l-.013.005-.013.004-1.495.411-.09.025-.084-.04-1.411-.671-.142-.067-.001-.157c-.01-1.937.809-3.534 2.1-4.905 1.287-1.365 3.051-2.516 4.955-3.573 1.896-1.052 3.981-2.037 5.866-3.034 1.902-1.006 3.627-2.038 4.88-3.212l.021-.02.025-.014a312.3 312.3 0 0 1 50.28-23.259zm56.859 20.061a63 63 0 0 0-4.937.194c-1.606.125-2.967.295-3.59.465l-.015.004-.016.002c-13.14 1.885-25.824 6.693-38.431 10.547-.076.206-.094.353-.082.453a.28.28 0 0 0 .127.217c.08.056.208.1.391.12.18.019.395.014.632-.009.473-.047 1.003-.164 1.468-.277.228-.055.448-.11.625-.152.159-.037.307-.067.417-.079l5.657-1.11c13.199-2.601 26.374-5.332 39.208-9.465l.005-.002c.853-.256 1.339-.461 1.558-.613l.02-.018a2 2 0 0 0-.357-.104 7 7 0 0 0-.693-.094 23 23 0 0 0-1.987-.079Zm82.767-11.343c-.987-.209-2.209.194-3.135.821-.46.311-.827.665-1.047 1-.225.343-.265.616-.185.806.08.188.325.401.93.516.598.114 1.492.119 2.76-.055l.019-.002 1.794-.104.714-.253c-.073-.88-.297-1.501-.606-1.926a2 2 0 0 0-1.244-.803Zm-47.78-9.698c4.085-.553 8.191-.909 12.298-.339l.532.074-.399.359c-2.734 2.459-6.843 3.544-11.17 4.192-2.169.324-4.407.54-6.57.76-2.167.221-4.259.445-6.146.785l-.017.003h-.016c-3.151.129-6.315.544-9.496.878-3.176.334-6.362.587-9.528.383l-.229-.014-.004-.23c-.018-.903.184-1.646.574-2.25.39-.602.956-1.049 1.639-1.379 1.355-.655 3.207-.873 5.182-.941a73 73 0 0 1 3.05-.025c1.029.008 2.052.019 3.033.001 1.969-.035 3.725-.187 4.971-.699l.038-.016.042-.002c4.063-.237 8.121-.986 12.216-1.54Z"/></g><g filter="url(#c)"><ellipse cx="241.936" cy="232.24" fill="url(#d)" rx="64.5" ry="60"/></g><g filter="url(#e)"><path fill="#fff" d="M295.742 166.591c90.899-31.215 145.779-25.151 152.694-3.54 10.168 24.458-67.217 81.011-172.759 125.537-105.542 44.525-202.425 60.578-212.593 36.12-6.35-17.377 14.331-45.375 84.956-85.797.185.339.231 1.514-.104 2.329-66.081 40.196-84.63 67.837-80.28 81.5 27.672 33.506 181.425-27.285 208.021-39 104.584-45.116 182.008-103.301 166.346-120.689-8.095-15.607-58.675-21.697-144.587 4.689a63 63 0 0 0-1.694-1.149"/></g><g filter="url(#f)"><ellipse cx="155.391" cy="326.966" fill="#6098e2" rx="23.972" ry="22.726"/><mask id="g" width="65" height="49" x="117" y="308" maskUnits="userSpaceOnUse" style="mask-type:alpha"><path fill="#155f20" d="M164.714 351.587c.831 1.969 1.492 3.208 3.329 4.419s12.87-2.505 13.318-5.682-1.175-6.11-3.329-7.575c-2.155-1.466-5.758-1.797-7.325-1.263s-1.218 1.15-2.664 1.894c-1.445.743-2.869.758-3.995 1.894-1.127 1.136-.165 4.344.666 6.313M152.786 335.718c0 .814-.315 2.052.524 2.443.84.391 2.623.489 3.148-.488.524-.978 1.509-1.171 1.574-1.955.064-.785-1.024-.831-1.574-1.429-.55-.597-1.633-1.282-2.398-.898s-1.274 1.512-1.274 2.327M155.391 332.017c.92.654 1.388-.863 2.419-.937 1.031-.073 1.468.947 2.072.366s2.114-1.374 2.293-2.172c.18-.799.973-1.775 1.332-2.896s-.35-4.401-.518-5.224-.213-.734-.814-1.35c-.6-.615-2.279-2.04-2.293-1.589s.222 1.775.296 2.221c.073.445-.049 1.023-.296 1.893-.248.871.451 2.847 0 4.049-.452 1.203-1.092 1.737-2.072 2.613-.979.875-3.415 1.018-3.625 2.089-.21 1.072.287.283 1.206.937M154.725 315.603c0-.631-1.331-3.156-1.331-3.156s-.666-.631 0-.631c.237 0 .812.24 1.484.52 1.215.508 2.748 1.149 3.177.742.666-.631 1.998-1.894 2.663-1.262.666.631 1.332 1.262 1.332 1.893 0 .632-1.332 1.894-1.997 1.894-.333 0-.333.474-.333 1.026s0 1.184-.333 1.499c-.666.632-3.996 0-3.996 0s-.666 0-.666.632c0 .315.5.473.999.631.5.158.999.316.999.631 0 .632-1.998 1.263-2.663 1.263-.666 0-.666-1.263-.666-1.894 0-.316.333-1.105.666-1.894s.665-1.578.665-1.894"/><path fill="#155f20" d="M154.725 328.229c.666-3.788-10.654-8.838-3.329-17.045 0 0-1.2-2.381-2.664-2.525-19.31-1.894-31.296 20.833-31.296 20.833l9.322 5.997 9.323 5.997c1.331-2.315 4.661 0 10.654 3.156 0-4.419-1.998-12.625 7.99-16.413"/></mask><g mask="url(#g)"><ellipse cx="155.391" cy="326.966" fill="#155f20" rx="23.972" ry="22.726"/></g></g><defs><filter id="b" width="221.494" height="60.82" x="225.441" y="282.987" color-interpolation-filters="sRGB" filterUnits="userSpaceOnUse"><feFlood flood-opacity="0" result="BackgroundImageFix"/><feColorMatrix in="SourceAlpha" result="hardAlpha" values="0 0 0 0 0 0 0 0 0 0 0 0 0 0 0 0 0 0 127 0"/><feOffset dx="4" dy="4"/><feComposite in2="hardAlpha" operator="out"/><feColorMatrix values="0 0 0 0 0.439216 0 0 0 0 0.4 0 0 0 0 0.392157 0 0 0 1 0"/><feBlend in2="BackgroundImageFix" result="effect1_dropShadow_8_128"/><feBlend in="SourceGraphic" in2="effect1_dropShadow_8_128" result="shape"/></filter><filter id="c" width="191" height="182" x="146.436" y="141.24" color-interpolation-filters="sRGB" filterUnits="userSpaceOnUse"><feFlood flood-opacity="0" result="BackgroundImageFix"/><feColorMatrix in="SourceAlpha" result="hardAlpha" values="0 0 0 0 0 0 0 0 0 0 0 0 0 0 0 0 0 0 127 0"/><feMorphology in="SourceAlpha" operator="dilate" radius="1" result="effect1_dropShadow_8_128"/><feOffset/><feGaussianBlur stdDeviation="15"/><feComposite in2="hardAlpha" operator="out"/><feColorMatrix values="0 0 0 0 1 0 0 0 0 0.392157 0 0 0 0 0.313726 0 0 0 0.8 0"/><feBlend in2="BackgroundImageFix" result="effect1_dropShadow_8_128"/><feBlend in="SourceGraphic" in2="effect1_dropShadow_8_128" result="shape"/></filter><filter id="e" width="389.333" height="193.138" x="61" y="144" color-interpolation-filters="sRGB" filterUnits="userSpaceOnUse"><feFlood flood-opacity="0" result="BackgroundImageFix"/><feBlend in="SourceGraphic" in2="BackgroundImageFix" result="shape"/><feGaussianBlur result="effect1_foregroundBlur_8_128" stdDeviation=".5"/></filter><filter id="f" width="49.944" height="47.453" x="130.419" y="303.24" color-interpolation-filters="sRGB" filterUnits="userSpaceOnUse"><feFlood flood-opacity="0" result="BackgroundImageFix"/><feBlend in="SourceGraphic" in2="BackgroundImageFix" result="shape"/><feGaussianBlur result="effect1_foregroundBlur_8_128" stdDeviation=".5"/></filter><radialGradient id="d" cx="0" cy="0" r="1" gradientTransform="matrix(0 60 -64.5 0 241.936 232.24)" gradientUnits="userSpaceOnUse"><stop stop-color="#bd3c48"/><stop offset="1" stop-color="#cd532e"/></radialGradient><clipPath id="a"><path fill="#fff" d="M209.436 273.24h233v66h-233z"/></clipPath></defs></svg>
