<svg xmlns="http://www.w3.org/2000/svg" width="512" height="512" fill="none" viewBox="0 0 512 512"><g filter="url(#a)"><path fill="#fff" d="M269.886 167.618c114.887-39.432 221.24-49.566 229.979-22.267 12.852 30.896-84.954 102.336-218.35 158.582-133.394 56.246-255.844 76.524-268.696 45.628-8.024-21.951 43.392-74.372 132.654-125.435.234.429.292 1.913-.132 2.943C61.821 277.845 13.1 329.816 18.598 347.075c34.974 42.326 229.303-34.467 262.917-49.266C413.7 240.818 511.556 167.317 491.761 145.351c-10.232-19.714-111.15-9.612-219.735 23.719a80 80 0 0 0-2.14-1.452"/><path stroke="#fff" stroke-width="4" d="M424.489 129.47c21.1-2.033 39.007-1.988 52.256.329 6.622 1.158 12.189 2.901 16.431 5.315 4.229 2.407 7.266 5.557 8.57 9.554 1.809 4.419 1.59 9.409-.208 14.704-1.805 5.315-5.239 11.062-10.042 17.124-9.608 12.125-24.962 25.833-44.786 40.257-39.675 28.866-97.62 60.858-164.418 89.023-66.802 28.167-130.915 47.351-179.996 55.621-24.525 4.133-45.405 5.559-61.032 3.968-7.812-.795-14.417-2.354-19.537-4.78-5.131-2.431-8.901-5.8-10.754-10.256l-.017-.04-.016-.041c-2.324-6.359-.223-14.441 4.937-23.367 5.216-9.023 13.823-19.376 25.396-30.559 23.163-22.38 58.48-48.345 103.207-73.931l1.77-1.013.979 1.789c.23.422.319.877.361 1.164.05.339.069.707.063 1.074-.012.711-.125 1.606-.462 2.424l-.25.608-.56.34c-41.661 25.328-74.593 50.925-96.394 72.292-10.907 10.691-18.973 20.27-23.958 28.181-2.493 3.957-4.177 7.436-5.077 10.381-.84 2.753-.95 4.89-.549 6.479 3.997 4.649 10.282 7.825 18.585 9.654 8.476 1.866 18.863 2.287 30.594 1.554 23.458-1.466 51.924-7.517 80.453-15.382 57.039-15.726 113.931-38.586 130.675-45.957l.014-.006c65.987-28.451 123.358-61.004 161.723-89.14 19.202-14.083 33.536-26.982 41.824-37.636 4.152-5.337 6.676-9.973 7.619-13.803.923-3.752.309-6.569-1.615-8.704l-.171-.19-.119-.228c-.955-1.84-3.124-3.598-6.879-5.067-3.718-1.454-8.726-2.52-14.931-3.163-12.4-1.284-29.213-.841-49.19 1.266-39.93 4.211-92.178 15.038-146.372 31.673l-.935.288-.801-.562a80 80 0 0 0-2.087-1.416l-3.417-2.238 3.863-1.326c57.555-19.754 113.021-32.189 155.253-36.257Z"/></g><g filter="url(#b)"><ellipse cx="252" cy="253" fill="url(#c)" rx="118" ry="113"/></g><g filter="url(#d)"><path fill="#fff" d="M499.865 145.351c12.852 30.896-84.954 102.336-218.35 158.582-133.394 56.246-255.844 76.524-268.696 45.628l5.779-2.486c34.974 42.326 229.303-34.467 262.917-49.266C413.7 240.817 511.556 167.317 491.761 145.351z"/><path stroke="#fff" stroke-width="4" d="m501.2 143.351.512 1.232c1.847 4.439 1.636 9.46-.174 14.789-1.805 5.314-5.239 11.063-10.042 17.125-9.608 12.125-24.962 25.833-44.786 40.256-39.675 28.866-97.62 60.858-164.418 89.023-66.802 28.167-130.915 47.351-179.996 55.621-24.525 4.132-45.405 5.559-61.032 3.968-7.812-.795-14.417-2.354-19.537-4.78-5.131-2.431-8.901-5.8-10.754-10.255l-.76-1.826 1.816-.78 5.779-2.486 1.377-.592.955 1.155c3.98 4.818 10.36 8.094 18.848 9.963 8.476 1.867 18.863 2.287 30.594 1.554 23.458-1.466 51.924-7.517 80.453-15.382 57.039-15.725 113.931-38.586 130.675-45.957l.014-.006c65.987-28.451 123.358-61.004 161.723-89.14 19.202-14.083 33.536-26.982 41.823-37.636 4.153-5.338 6.677-9.973 7.62-13.804.923-3.752.309-6.569-1.615-8.703l-3.008-3.339z"/></g><g filter="url(#e)"><circle cx="163.751" cy="351.421" r="67.421" fill="#6098e2"/><mask id="f" width="180" height="143" x="57" y="296" maskUnits="userSpaceOnUse" style="mask-type:alpha"><path fill="#155f20" d="M189.969 424.461c2.338 5.841 4.199 9.518 9.364 13.109 5.166 3.592 36.197-7.431 37.457-16.855s-3.305-18.125-9.364-22.474-16.194-5.328-20.601-3.745c-4.408 1.583-3.426 3.412-7.492 5.618s-8.068 2.248-11.236 5.618-.465 12.887 1.872 18.729M156.422 377.385c0 2.416-.885 6.089 1.476 7.249s7.377 1.45 8.853-1.45 4.244-3.472 4.426-5.799-2.88-2.466-4.426-4.238-4.593-3.805-6.746-2.666c-2.152 1.139-3.583 4.487-3.583 6.904M163.751 366.403c2.587 1.94 3.904-2.559 6.803-2.778s4.128 2.809 5.827 1.084c1.699-1.724 5.946-4.076 6.451-6.444s2.735-5.265 3.745-8.589-.984-13.058-1.456-15.5c-.472-2.441-.6-2.178-2.289-4.004s-6.41-6.051-6.451-4.714.625 5.266.832 6.587c.207 1.322-.136 3.036-.832 5.619s1.269 8.444 0 12.012c-1.27 3.567-3.072 5.151-5.827 7.749s-9.605 3.021-10.196 6.2.807.837 3.393 2.778M161.877 317.712c0-1.873-3.746-9.364-3.746-9.364s-1.873-1.873 0-1.873c.667 0 2.284.713 4.174 1.546 3.418 1.506 7.73 3.406 8.936 2.2 1.873-1.873 5.618-5.619 7.491-3.746s3.746 3.746 3.746 5.619-3.746 5.618-5.619 5.618c-.936 0-.936 1.405-.936 3.043s0 3.512-.937 4.448c-1.872 1.873-11.236 0-11.236 0s-1.873 0-1.873 1.873c0 .937 1.404 1.405 2.809 1.873s2.809.936 2.809 1.873c0 1.873-5.618 3.745-7.491 3.745s-1.873-3.745-1.873-5.618c0-.936.937-3.278 1.873-5.619s1.873-4.681 1.873-5.618"/><path fill="#155f20" d="M161.878 355.169c1.872-11.237-29.965-26.22-9.364-50.566 0 0-3.376-7.066-7.492-7.491C90.711 291.493 57 358.914 57 358.914l26.22 17.792 26.219 17.792c3.745-6.867 13.11-.001 29.965 9.364 0-13.11-5.619-37.457 22.474-48.693"/></mask><g mask="url(#f)"><circle cx="163.751" cy="351.421" r="67.421" fill="#155f20"/></g></g><defs><filter id="a" width="499.003" height="244" x="6.997" y="125" color-interpolation-filters="sRGB" filterUnits="userSpaceOnUse"><feFlood flood-opacity="0" result="BackgroundImageFix"/><feBlend in="SourceGraphic" in2="BackgroundImageFix" result="shape"/><feGaussianBlur result="effect1_foregroundBlur_8_1396" stdDeviation=".5"/></filter><filter id="b" width="298" height="288" x="103" y="109" color-interpolation-filters="sRGB" filterUnits="userSpaceOnUse"><feFlood flood-opacity="0" result="BackgroundImageFix"/><feColorMatrix in="SourceAlpha" result="hardAlpha" values="0 0 0 0 0 0 0 0 0 0 0 0 0 0 0 0 0 0 127 0"/><feMorphology in="SourceAlpha" operator="dilate" radius="1" result="effect1_dropShadow_8_1396"/><feOffset/><feGaussianBlur stdDeviation="15"/><feComposite in2="hardAlpha" operator="out"/><feColorMatrix values="0 0 0 0 1 0 0 0 0 0.392157 0 0 0 0 0.313726 0 0 0 0.8 0"/><feBlend in2="BackgroundImageFix" result="effect1_dropShadow_8_1396"/><feBlend in="SourceGraphic" in2="effect1_dropShadow_8_1396" result="shape"/></filter><filter id="d" width="499.392" height="228.649" x="6.608" y="140.351" color-interpolation-filters="sRGB" filterUnits="userSpaceOnUse"><feFlood flood-opacity="0" result="BackgroundImageFix"/><feBlend in="SourceGraphic" in2="BackgroundImageFix" result="shape"/><feGaussianBlur result="effect1_foregroundBlur_8_1396" stdDeviation=".5"/></filter><filter id="e" width="136.843" height="136.843" x="95.33" y="283" color-interpolation-filters="sRGB" filterUnits="userSpaceOnUse"><feFlood flood-opacity="0" result="BackgroundImageFix"/><feBlend in="SourceGraphic" in2="BackgroundImageFix" result="shape"/><feGaussianBlur result="effect1_foregroundBlur_8_1396" stdDeviation=".5"/></filter><radialGradient id="c" cx="0" cy="0" r="1" gradientTransform="matrix(0 113 -118 0 252 253)" gradientUnits="userSpaceOnUse"><stop stop-color="#bd3c48"/><stop offset="1" stop-color="#cd532e"/></radialGradient></defs></svg>
