<svg xmlns="http://www.w3.org/2000/svg" width="512" height="512" fill="none" viewBox="0 0 512 512"><g clip-path="url(#a)"><path fill="url(#b)" d="M45 63a3 3 0 1 0 0-6 3 3 0 0 0 0 6"/><path fill="url(#c)" d="M120 87a2 2 0 1 0 0-4 2 2 0 0 0 0 4"/><path fill="url(#d)" d="M210 44a4 4 0 1 0 0-8 4 4 0 0 0 0 8"/><path fill="url(#e)" d="M350 112.5a2.5 2.5 0 1 0 0-5 2.5 2.5 0 0 0 0 5"/><path fill="url(#f)" d="M480 75a5 5 0 1 0 0-10 5 5 0 0 0 0 10"/><path fill="url(#g)" d="M30 151.5a1.5 1.5 0 1 0 0-3 1.5 1.5 0 0 0 0 3"/><path fill="url(#h)" d="M180 133.5a3.5 3.5 0 1 0 0-7 3.5 3.5 0 0 0 0 7"/><path fill="url(#i)" d="M280 182a2 2 0 1 0 .001-3.999A2 2 0 0 0 280 182"/><path fill="url(#j)" d="M420 164.5a4.5 4.5 0 1 0 0-9 4.5 4.5 0 0 0 0 9"/><path fill="url(#k)" d="M70 222a2 2 0 1 0 0-4 2 2 0 0 0 0 4"/><path fill="url(#l)" d="M150 253a3 3 0 1 0 0-6 3 3 0 0 0 0 6"/><path fill="url(#m)" d="M310 231.5a1.5 1.5 0 1 0-.001-3.001A1.5 1.5 0 0 0 310 231.5"/><path fill="url(#n)" d="M450 283.5a3.5 3.5 0 1 0 0-7 3.5 3.5 0 0 0 0 7"/><path fill="url(#o)" d="M20 314a4 4 0 1 0 0-8 4 4 0 0 0 0 8"/><path fill="url(#p)" d="M190 302.5a2.5 2.5 0 1 0 0-5 2.5 2.5 0 0 0 0 5"/><path fill="url(#q)" d="M380 333a3 3 0 1 0 0-6 3 3 0 0 0 0 6"/><path fill="url(#r)" d="M500 302a2 2 0 1 0 .001-3.999A2 2 0 0 0 500 302"/><path fill="url(#s)" d="M100 383.5a3.5 3.5 0 1 0 0-7 3.5 3.5 0 0 0 0 7"/><path fill="url(#t)" d="M250 362a2 2 0 1 0 .001-3.999A2 2 0 0 0 250 362"/><path fill="url(#u)" d="M400 394a4 4 0 1 0 0-8 4 4 0 0 0 0 8"/><path fill="url(#v)" d="M60 442.5a2.5 2.5 0 1 0 0-5 2.5 2.5 0 0 0 0 5"/><path fill="url(#w)" d="M170 473a3 3 0 1 0 0-6 3 3 0 0 0 0 6"/><path fill="url(#x)" d="M330 451.5a1.5 1.5 0 1 0-.001-3.001A1.5 1.5 0 0 0 330 451.5"/><path fill="url(#y)" d="M470 423.5a3.5 3.5 0 1 0 0-7 3.5 3.5 0 0 0 0 7"/><path fill="url(#z)" d="M80 30.8a.8.8 0 1 0 0-1.6.8.8 0 0 0 0 1.6"/><path fill="url(#A)" d="M150 21a1 1 0 1 0 0-2 1 1 0 0 0 0 2"/><path fill="url(#B)" d="M250 70.6a.6.6 0 1 0 0-1.2.6.6 0 0 0 0 1.2"/><path fill="url(#C)" d="M380 50.9a.9.9 0 1 0 0-1.8.9.9 0 0 0 0 1.8"/><path fill="url(#D)" d="M450 20.7a.7.7 0 1 0 0-1.4.7.7 0 0 0 0 1.4"/><path fill="url(#E)" d="M20 100.5a.5.5 0 1 0 0-1 .5.5 0 0 0 0 1"/><path fill="url(#F)" d="M220 91.1a1.1 1.1 0 1 0 0-2.2 1.1 1.1 0 0 0 0 2.2"/><path fill="url(#G)" d="M300 75.8a.8.8 0 1 0 0-1.6.8.8 0 0 0 0 1.6"/><path fill="url(#H)" d="M490 130.6a.6.6 0 1 0-.001-1.201.6.6 0 0 0 .001 1.201"/><path fill="url(#I)" d="M110 170.7a.7.7 0 1 0 .001-1.399.7.7 0 0 0-.001 1.399"/><path fill="url(#J)" d="M280 150.9a.9.9 0 1 0 0-1.8.9.9 0 0 0 0 1.8"/><path fill="url(#K)" d="M360 190.5a.5.5 0 1 0 0-1 .5.5 0 0 0 0 1"/><path fill="url(#L)" d="M50 250.6a.6.6 0 1 0 0-1.2.6.6 0 0 0 0 1.2"/><path fill="url(#M)" d="M240 210.7a.7.7 0 1 0 .001-1.399.7.7 0 0 0-.001 1.399"/><path fill="url(#N)" d="M410 241a1 1 0 1 0 0-2 1 1 0 0 0 0 2"/><path fill="url(#O)" d="M10 350.8a.8.8 0 1 0 0-1.6.8.8 0 0 0 0 1.6"/><path fill="url(#P)" d="M160 330.9a.9.9 0 1 0 0-1.8.9.9 0 0 0 0 1.8"/><path fill="url(#Q)" d="M300 300.7a.7.7 0 1 0 .001-1.399.7.7 0 0 0-.001 1.399"/><path fill="url(#R)" d="M450 350.6a.6.6 0 1 0-.001-1.201.6.6 0 0 0 .001 1.201"/><path fill="url(#S)" d="M90 421a1 1 0 1 0 0-2 1 1 0 0 0 0 2"/><path fill="url(#T)" d="M210 400.8a.8.8 0 1 0 0-1.6.8.8 0 0 0 0 1.6"/><path fill="url(#U)" d="M350 480.7a.7.7 0 1 0 .001-1.399.7.7 0 0 0-.001 1.399"/><path fill="url(#V)" d="M500 450.9a.9.9 0 1 0 0-1.8.9.9 0 0 0 0 1.8"/><path fill="url(#W)" d="M30 400.6a.6.6 0 1 0 0-1.2.6.6 0 0 0 0 1.2"/><path fill="url(#X)" d="M270 431.1a1.1 1.1 0 1 0 .001-2.199A1.1 1.1 0 0 0 270 431.1"/><path fill="url(#Y)" d="M430 460.5a.5.5 0 1 0 0-1 .5.5 0 0 0 0 1"/></g><defs><radialGradient id="b" cx="0" cy="0" r="1" gradientTransform="matrix(300 0 0 300 342 357)" gradientUnits="userSpaceOnUse"><stop stop-color="#fff"/><stop offset="1" stop-color="#fff" stop-opacity=".6"/></radialGradient><radialGradient id="c" cx="0" cy="0" r="1" gradientTransform="matrix(200 0 0 200 318 283)" gradientUnits="userSpaceOnUse"><stop stop-color="#fff"/><stop offset="1" stop-color="#fff" stop-opacity=".6"/></radialGradient><radialGradient id="d" cx="0" cy="0" r="1" gradientTransform="matrix(400 0 0 400 606 436)" gradientUnits="userSpaceOnUse"><stop stop-color="#fff"/><stop offset="1" stop-color="#fff" stop-opacity=".6"/></radialGradient><radialGradient id="e" cx="0" cy="0" r="1" gradientTransform="matrix(250 0 0 250 597.5 357.5)" gradientUnits="userSpaceOnUse"><stop stop-color="#fff"/><stop offset="1" stop-color="#fff" stop-opacity=".6"/></radialGradient><radialGradient id="f" cx="0" cy="0" r="1" gradientTransform="matrix(500 0 0 500 975 565)" gradientUnits="userSpaceOnUse"><stop stop-color="#fff"/><stop offset="1" stop-color="#fff" stop-opacity=".6"/></radialGradient><radialGradient id="g" cx="0" cy="0" r="1" gradientTransform="matrix(150 0 0 150 178.5 298.5)" gradientUnits="userSpaceOnUse"><stop stop-color="#fff"/><stop offset="1" stop-color="#fff" stop-opacity=".6"/></radialGradient><radialGradient id="h" cx="0" cy="0" r="1" gradientTransform="matrix(350 0 0 350 526.5 476.5)" gradientUnits="userSpaceOnUse"><stop stop-color="#fff"/><stop offset="1" stop-color="#fff" stop-opacity=".6"/></radialGradient><radialGradient id="i" cx="0" cy="0" r="1" gradientTransform="matrix(200 0 0 200 478 378)" gradientUnits="userSpaceOnUse"><stop stop-color="#fff"/><stop offset="1" stop-color="#fff" stop-opacity=".6"/></radialGradient><radialGradient id="j" cx="0" cy="0" r="1" gradientTransform="matrix(450 0 0 450 865.5 605.5)" gradientUnits="userSpaceOnUse"><stop stop-color="#fff"/><stop offset="1" stop-color="#fff" stop-opacity=".6"/></radialGradient><radialGradient id="k" cx="0" cy="0" r="1" gradientTransform="matrix(200 0 0 200 268 418)" gradientUnits="userSpaceOnUse"><stop stop-color="#fff"/><stop offset="1" stop-color="#fff" stop-opacity=".6"/></radialGradient><radialGradient id="l" cx="0" cy="0" r="1" gradientTransform="matrix(300 0 0 300 447 547)" gradientUnits="userSpaceOnUse"><stop stop-color="#fff"/><stop offset="1" stop-color="#fff" stop-opacity=".6"/></radialGradient><radialGradient id="m" cx="0" cy="0" r="1" gradientTransform="matrix(150 0 0 150 458.5 378.5)" gradientUnits="userSpaceOnUse"><stop stop-color="#fff"/><stop offset="1" stop-color="#fff" stop-opacity=".6"/></radialGradient><radialGradient id="n" cx="0" cy="0" r="1" gradientTransform="matrix(350 0 0 350 796.5 626.5)" gradientUnits="userSpaceOnUse"><stop stop-color="#fff"/><stop offset="1" stop-color="#fff" stop-opacity=".6"/></radialGradient><radialGradient id="o" cx="0" cy="0" r="1" gradientTransform="matrix(400 0 0 400 416 706)" gradientUnits="userSpaceOnUse"><stop stop-color="#fff"/><stop offset="1" stop-color="#fff" stop-opacity=".6"/></radialGradient><radialGradient id="p" cx="0" cy="0" r="1" gradientTransform="matrix(250 0 0 250 437.5 547.5)" gradientUnits="userSpaceOnUse"><stop stop-color="#fff"/><stop offset="1" stop-color="#fff" stop-opacity=".6"/></radialGradient><radialGradient id="q" cx="0" cy="0" r="1" gradientTransform="matrix(300 0 0 300 677 627)" gradientUnits="userSpaceOnUse"><stop stop-color="#fff"/><stop offset="1" stop-color="#fff" stop-opacity=".6"/></radialGradient><radialGradient id="r" cx="0" cy="0" r="1" gradientTransform="matrix(200 0 0 200 698 498)" gradientUnits="userSpaceOnUse"><stop stop-color="#fff"/><stop offset="1" stop-color="#fff" stop-opacity=".6"/></radialGradient><radialGradient id="s" cx="0" cy="0" r="1" gradientTransform="matrix(350 0 0 350 446.5 726.5)" gradientUnits="userSpaceOnUse"><stop stop-color="#fff"/><stop offset="1" stop-color="#fff" stop-opacity=".6"/></radialGradient><radialGradient id="t" cx="0" cy="0" r="1" gradientTransform="matrix(200 0 0 200 448 558)" gradientUnits="userSpaceOnUse"><stop stop-color="#fff"/><stop offset="1" stop-color="#fff" stop-opacity=".6"/></radialGradient><radialGradient id="u" cx="0" cy="0" r="1" gradientTransform="matrix(400 0 0 400 796 786)" gradientUnits="userSpaceOnUse"><stop stop-color="#fff"/><stop offset="1" stop-color="#fff" stop-opacity=".6"/></radialGradient><radialGradient id="v" cx="0" cy="0" r="1" gradientTransform="matrix(250 0 0 250 307.5 687.5)" gradientUnits="userSpaceOnUse"><stop stop-color="#fff"/><stop offset="1" stop-color="#fff" stop-opacity=".6"/></radialGradient><radialGradient id="w" cx="0" cy="0" r="1" gradientTransform="matrix(300 0 0 300 467 767)" gradientUnits="userSpaceOnUse"><stop stop-color="#fff"/><stop offset="1" stop-color="#fff" stop-opacity=".6"/></radialGradient><radialGradient id="x" cx="0" cy="0" r="1" gradientTransform="matrix(150 0 0 150 478.5 598.5)" gradientUnits="userSpaceOnUse"><stop stop-color="#fff"/><stop offset="1" stop-color="#fff" stop-opacity=".6"/></radialGradient><radialGradient id="y" cx="0" cy="0" r="1" gradientTransform="matrix(350 0 0 350 816.5 766.5)" gradientUnits="userSpaceOnUse"><stop stop-color="#fff"/><stop offset="1" stop-color="#fff" stop-opacity=".6"/></radialGradient><radialGradient id="z" cx="0" cy="0" r="1" gradientTransform="matrix(80.0003 0 0 79.9999 159.2 109.2)" gradientUnits="userSpaceOnUse"><stop stop-color="#fff" stop-opacity=".8"/><stop offset="1" stop-color="#fff" stop-opacity=".4"/></radialGradient><radialGradient id="A" cx="0" cy="0" r="1" gradientTransform="matrix(100 0 0 100 249 119)" gradientUnits="userSpaceOnUse"><stop stop-color="#fff" stop-opacity=".8"/><stop offset="1" stop-color="#fff" stop-opacity=".4"/></radialGradient><radialGradient id="B" cx="0" cy="0" r="1" gradientTransform="matrix(60.0006 0 0 59.9998 309.401 129.4)" gradientUnits="userSpaceOnUse"><stop stop-color="#fff" stop-opacity=".8"/><stop offset="1" stop-color="#fff" stop-opacity=".4"/></radialGradient><radialGradient id="C" cx="0" cy="0" r="1" gradientTransform="matrix(89.9994 0 0 90.0002 469.099 139.1)" gradientUnits="userSpaceOnUse"><stop stop-color="#fff" stop-opacity=".8"/><stop offset="1" stop-color="#fff" stop-opacity=".4"/></radialGradient><radialGradient id="D" cx="0" cy="0" r="1" gradientTransform="matrix(70.0012 0 0 70.0001 519.301 89.3)" gradientUnits="userSpaceOnUse"><stop stop-color="#fff" stop-opacity=".8"/><stop offset="1" stop-color="#fff" stop-opacity=".4"/></radialGradient><radialGradient id="E" cx="0" cy="0" r="1" gradientTransform="matrix(50 0 0 50 69.5 149.5)" gradientUnits="userSpaceOnUse"><stop stop-color="#fff" stop-opacity=".8"/><stop offset="1" stop-color="#fff" stop-opacity=".4"/></radialGradient><radialGradient id="F" cx="0" cy="0" r="1" gradientTransform="matrix(110.001 0 0 110 328.901 198.9)" gradientUnits="userSpaceOnUse"><stop stop-color="#fff" stop-opacity=".8"/><stop offset="1" stop-color="#fff" stop-opacity=".4"/></radialGradient><radialGradient id="G" cx="0" cy="0" r="1" gradientTransform="matrix(79.9988 0 0 80.0003 379.199 154.2)" gradientUnits="userSpaceOnUse"><stop stop-color="#fff" stop-opacity=".8"/><stop offset="1" stop-color="#fff" stop-opacity=".4"/></radialGradient><radialGradient id="H" cx="0" cy="0" r="1" gradientTransform="translate(549.401 189.401)scale(60.0006)" gradientUnits="userSpaceOnUse"><stop stop-color="#fff" stop-opacity=".8"/><stop offset="1" stop-color="#fff" stop-opacity=".4"/></radialGradient><radialGradient id="I" cx="0" cy="0" r="1" gradientTransform="translate(179.3 239.3)scale(69.9997)" gradientUnits="userSpaceOnUse"><stop stop-color="#fff" stop-opacity=".8"/><stop offset="1" stop-color="#fff" stop-opacity=".4"/></radialGradient><radialGradient id="J" cx="0" cy="0" r="1" gradientTransform="translate(369.099 239.099)scale(89.9994)" gradientUnits="userSpaceOnUse"><stop stop-color="#fff" stop-opacity=".8"/><stop offset="1" stop-color="#fff" stop-opacity=".4"/></radialGradient><radialGradient id="K" cx="0" cy="0" r="1" gradientTransform="matrix(50 0 0 50 409.5 239.5)" gradientUnits="userSpaceOnUse"><stop stop-color="#fff" stop-opacity=".8"/><stop offset="1" stop-color="#fff" stop-opacity=".4"/></radialGradient><radialGradient id="L" cx="0" cy="0" r="1" gradientTransform="matrix(59.9998 0 0 60.0006 109.4 309.401)" gradientUnits="userSpaceOnUse"><stop stop-color="#fff" stop-opacity=".8"/><stop offset="1" stop-color="#fff" stop-opacity=".4"/></radialGradient><radialGradient id="M" cx="0" cy="0" r="1" gradientTransform="translate(309.3 279.3)scale(69.9997)" gradientUnits="userSpaceOnUse"><stop stop-color="#fff" stop-opacity=".8"/><stop offset="1" stop-color="#fff" stop-opacity=".4"/></radialGradient><radialGradient id="N" cx="0" cy="0" r="1" gradientTransform="matrix(100 0 0 100 509 339)" gradientUnits="userSpaceOnUse"><stop stop-color="#fff" stop-opacity=".8"/><stop offset="1" stop-color="#fff" stop-opacity=".4"/></radialGradient><radialGradient id="O" cx="0" cy="0" r="1" gradientTransform="matrix(80 0 0 79.9988 89.2 429.199)" gradientUnits="userSpaceOnUse"><stop stop-color="#fff" stop-opacity=".8"/><stop offset="1" stop-color="#fff" stop-opacity=".4"/></radialGradient><radialGradient id="P" cx="0" cy="0" r="1" gradientTransform="translate(249.099 419.099)scale(89.9994)" gradientUnits="userSpaceOnUse"><stop stop-color="#fff" stop-opacity=".8"/><stop offset="1" stop-color="#fff" stop-opacity=".4"/></radialGradient><radialGradient id="Q" cx="0" cy="0" r="1" gradientTransform="translate(369.301 369.301)scale(70.0012)" gradientUnits="userSpaceOnUse"><stop stop-color="#fff" stop-opacity=".8"/><stop offset="1" stop-color="#fff" stop-opacity=".4"/></radialGradient><radialGradient id="R" cx="0" cy="0" r="1" gradientTransform="translate(509.401 409.401)scale(60.0006)" gradientUnits="userSpaceOnUse"><stop stop-color="#fff" stop-opacity=".8"/><stop offset="1" stop-color="#fff" stop-opacity=".4"/></radialGradient><radialGradient id="S" cx="0" cy="0" r="1" gradientTransform="matrix(100 0 0 100 189 519)" gradientUnits="userSpaceOnUse"><stop stop-color="#fff" stop-opacity=".8"/><stop offset="1" stop-color="#fff" stop-opacity=".4"/></radialGradient><radialGradient id="T" cx="0" cy="0" r="1" gradientTransform="matrix(80.0003 0 0 79.9988 289.2 479.199)" gradientUnits="userSpaceOnUse"><stop stop-color="#fff" stop-opacity=".8"/><stop offset="1" stop-color="#fff" stop-opacity=".4"/></radialGradient><radialGradient id="U" cx="0" cy="0" r="1" gradientTransform="translate(419.301 549.301)scale(70.0012)" gradientUnits="userSpaceOnUse"><stop stop-color="#fff" stop-opacity=".8"/><stop offset="1" stop-color="#fff" stop-opacity=".4"/></radialGradient><radialGradient id="V" cx="0" cy="0" r="1" gradientTransform="translate(589.099 539.099)scale(89.9994)" gradientUnits="userSpaceOnUse"><stop stop-color="#fff" stop-opacity=".8"/><stop offset="1" stop-color="#fff" stop-opacity=".4"/></radialGradient><radialGradient id="W" cx="0" cy="0" r="1" gradientTransform="matrix(60 0 0 60.0006 89.4 459.401)" gradientUnits="userSpaceOnUse"><stop stop-color="#fff" stop-opacity=".8"/><stop offset="1" stop-color="#fff" stop-opacity=".4"/></radialGradient><radialGradient id="X" cx="0" cy="0" r="1" gradientTransform="translate(378.901 538.901)scale(110.001)" gradientUnits="userSpaceOnUse"><stop stop-color="#fff" stop-opacity=".8"/><stop offset="1" stop-color="#fff" stop-opacity=".4"/></radialGradient><radialGradient id="Y" cx="0" cy="0" r="1" gradientTransform="matrix(50 0 0 50 479.5 509.5)" gradientUnits="userSpaceOnUse"><stop stop-color="#fff" stop-opacity=".8"/><stop offset="1" stop-color="#fff" stop-opacity=".4"/></radialGradient><clipPath id="a"><path fill="#fff" d="M0 0h512v512H0z"/></clipPath></defs></svg>
